<svg width="410" height="302" viewBox="0 0 410 302" fill="none" xmlns="http://www.w3.org/2000/svg">
<path d="M1.21757 177.431C36.4065 116.053 126.191 24.8037 203.82 150.834C216.91 165.831 225.387 183.394 361.846 123.855" stroke="#AFBEC1" stroke-width="2" stroke-dasharray="4 4"/>
<path d="M402.757 106.034C407.536 103.276 409.561 99.3528 408.452 97.4154C407.33 95.4912 402.922 95.2844 398.143 98.0426L389.866 102.821L386.787 101.01C387.219 100.702 387.535 100.263 387.675 99.7414C387.835 99.1446 387.754 98.5229 387.446 97.9921L387.061 97.3255C386.447 96.2618 384.974 95.867 383.912 96.4815L381.476 97.8868L379.93 96.9774C380.394 96.6674 380.732 96.2121 380.878 95.6664C381.038 95.0696 380.957 94.448 380.65 93.9173L380.265 93.2491C379.629 92.1508 378.216 91.7707 377.115 92.4051L374.614 93.8498L367.905 89.9038C367.341 89.5725 366.634 89.568 366.067 89.8969L364.462 90.8223C363.967 91.1089 363.64 91.5989 363.565 92.1653C363.49 92.7318 363.678 93.2892 364.083 93.6936L379.283 108.93L374.151 111.893C371.412 113.474 368.656 115.415 366.373 117.334L360.37 113.801C359.8 113.475 359.098 113.472 358.537 113.796L357.597 114.34C357.104 114.624 356.777 115.113 356.702 115.679C356.626 116.246 356.814 116.804 357.217 117.209L361.918 121.919C361.098 123.102 360.754 124.101 361.123 124.747C361.302 125.054 361.629 125.262 362.081 125.383C362.572 125.515 363.218 125.536 363.967 125.473L365.694 131.894C365.843 132.444 366.232 132.885 366.761 133.103C366.836 133.134 366.913 133.16 366.989 133.181C367.454 133.305 367.946 133.243 368.368 132.999L369.309 132.456C369.87 132.132 370.22 131.523 370.222 130.858L370.164 123.903C372.966 122.885 376.025 121.467 378.764 119.885L383.896 116.923L389.491 137.705C389.639 138.257 390.028 138.699 390.556 138.917C390.631 138.949 390.709 138.975 390.786 138.995C391.25 139.12 391.742 139.056 392.167 138.812L393.77 137.886C394.34 137.558 394.69 136.946 394.684 136.289L394.622 128.506L397.124 127.063C398.224 126.427 398.602 125.014 397.968 123.913L397.583 123.246C396.974 122.19 395.654 121.809 394.572 122.34L394.558 120.545L396.992 119.14C397.524 118.833 397.906 118.335 398.065 117.739C398.225 117.142 398.144 116.521 397.837 115.989L397.452 115.323C396.877 114.326 395.549 113.928 394.508 114.387L394.48 110.812L402.757 106.034ZM384.679 97.8085C385.031 97.602 385.528 97.7359 385.734 98.0912L386.119 98.7585C386.329 99.1228 386.198 99.6027 385.836 99.8136L385.29 100.129L382.996 98.7796L384.679 97.8085ZM377.882 93.7333C378.251 93.5181 378.725 93.6467 378.937 94.016L379.322 94.6843C379.532 95.0476 379.401 95.5292 379.039 95.7394L378.427 96.0928L376.133 94.7433L377.882 93.7333ZM365.167 92.6112C365.078 92.5223 365.076 92.4195 365.084 92.3659C365.091 92.313 365.119 92.2134 365.227 92.1503L366.832 91.2242C366.923 91.1716 367.037 91.1711 367.126 91.2253L388.339 103.701L380.655 108.137L365.167 92.6112ZM358.302 116.128C358.214 116.039 358.213 115.936 358.22 115.882C358.227 115.828 358.255 115.729 358.361 115.668L359.301 115.124C359.39 115.073 359.509 115.074 359.599 115.126L365.156 118.397C364.282 119.191 363.501 119.969 362.865 120.701L358.301 116.129L358.302 116.128ZM368.689 130.861C368.688 130.972 368.631 131.077 368.542 131.129L367.601 131.671C367.494 131.731 367.397 131.706 367.345 131.686C367.295 131.665 367.206 131.613 367.173 131.494L365.494 125.251C366.448 125.066 367.508 124.785 368.635 124.423L368.69 130.86L368.689 130.861ZM377.998 118.558C370.354 122.971 363.671 124.419 362.485 123.956C362.692 122.671 367.275 117.632 374.916 113.221L398.909 99.3692C403.307 96.8311 406.664 97.387 407.123 98.1815C407.582 98.9823 406.388 102.168 401.99 104.706L377.998 118.558ZM395.199 123.73C395.568 123.516 396.043 123.645 396.256 124.013L396.64 124.679C396.854 125.048 396.727 125.522 396.357 125.735L394.607 126.745L394.585 124.083L395.197 123.73L395.199 123.73ZM395.068 115.806C395.425 115.602 395.919 115.734 396.124 116.089L396.509 116.756C396.718 117.117 396.588 117.604 396.226 117.812L394.544 118.783L394.522 116.122L395.068 115.806ZM393.152 136.302C393.153 136.407 393.097 136.505 393.005 136.558L391.401 137.484C391.292 137.546 391.191 137.521 391.142 137.501C391.092 137.481 391.004 137.428 390.972 137.306L385.27 116.129L392.954 111.693L393.153 136.301L393.152 136.302Z" fill="#AFBEC1"/>
</svg>
