<svg width="1215" height="4378" viewBox="0 0 1215 4378" fill="none" xmlns="http://www.w3.org/2000/svg">
<path d="M723 1.5C644.5 57 515.5 67.9 515.5 121.5C515.5 188.5 266.569 271.5 234.569 335.5C202.569 399.5 281.069 448.5 182.069 503C102.869 546.6 160.736 741.833 199.569 834C215.735 896.333 279.469 1033.7 405.069 1084.5C562.069 1148 982.069 1513 981.069 1803.5C980.269 2035.9 939.069 2135.33 918.569 2156C780.735 2202.83 509.069 2321.3 525.069 2420.5C541.069 2519.7 617.402 2592.83 653.569 2617C683.069 2712.5 681.069 2934.5 437.069 3058.5C193.069 3182.5 786.735 3638.17 1114.07 3850.5C1268.9 4002.5 1358.27 4288.8 477.069 4218C-404.131 4147.2 41.902 4294.5 375.069 4377" stroke="#CCD5D4" stroke-width="2"/>
</svg>
